<svg xmlns="http://www.w3.org/2000/svg" xmlns:xlink="http://www.w3.org/1999/xlink" width="1024" zoomAndPan="magnify" viewBox="0 0 768 767.999994" height="1024" preserveAspectRatio="xMidYMid meet" version="1.0"><path fill="#5271ff" d="M 675.375 277.949219 L 675.375 347.398438 C 675.375 354.449219 670.949219 360.75 664.273438 363.074219 L 550.351562 402.226562 L 550.351562 297.375 L 473.925781 272.550781 L 553.125 238.351562 C 562.050781 233.773438 569.550781 229.351562 575.625 225 L 663.601562 261 C 670.648438 263.625 675.375 270.449219 675.375 277.949219 Z M 675.375 277.949219 " fill-opacity="1" fill-rule="nonzero"/><path fill="#ff914d" d="M 665.324219 369.148438 L 665.324219 372.449219 L 656.101562 375.601562 L 656.101562 369.148438 Z M 665.324219 369.148438 " fill-opacity="1" fill-rule="nonzero"/><path fill="#004aad" d="M 656.101562 375.601562 L 656.101562 572.324219 L 550.351562 612.824219 L 550.351562 411.898438 Z M 656.101562 375.601562 " fill-opacity="1" fill-rule="nonzero"/><path fill="#ff914d" d="M 684.601562 277.949219 L 684.601562 347.398438 C 684.601562 358.425781 677.625 368.25 667.199219 371.851562 L 665.324219 372.523438 L 665.324219 369.226562 L 656.101562 369.226562 L 656.101562 375.675781 L 550.351562 411.976562 L 550.351562 402.226562 L 664.199219 363 C 670.875 360.675781 675.300781 354.375 675.300781 347.324219 L 675.300781 277.875 C 675.300781 270.375 670.574219 263.625 663.523438 261 L 575.550781 225 C 578.699219 222.898438 581.476562 220.726562 583.875 218.550781 L 666.824219 252.449219 C 677.476562 256.273438 684.601562 266.550781 684.601562 277.949219 Z M 578.925781 160.125 C 588.523438 173.476562 592.050781 184.5 589.875 193.800781 C 588.300781 200.625 583.574219 207.148438 575.25 213.898438 C 568.800781 219.074219 560.175781 224.398438 549.148438 230.023438 L 461.851562 267.601562 C 459 251.925781 443.699219 238.875 422.101562 232.199219 L 491.25 156.449219 C 501.824219 141.976562 516.226562 133.574219 532.125 132.824219 C 545.476562 132.074219 558.824219 137.398438 566.773438 146.324219 Z M 578.925781 160.125 " fill-opacity="1" fill-rule="nonzero"/><path fill="#ff914d" d="M 576.75 215.625 L 583.949219 218.625 C 581.550781 220.875 578.773438 222.976562 575.625 225.074219 L 573.300781 224.175781 Z M 550.351562 612.824219 L 550.351562 617.476562 L 541.050781 617.476562 L 541.050781 616.351562 Z M 550.351562 402.226562 L 550.351562 411.898438 L 548.023438 412.800781 L 544.949219 404.023438 Z M 541.050781 304.125 L 541.050781 616.351562 L 476.25 641.175781 L 476.25 326.925781 L 432.449219 310.125 C 448.574219 302.773438 459.601562 291.523438 461.925781 278.324219 Z M 476.25 641.175781 L 476.25 647.851562 L 466.949219 647.851562 L 466.949219 644.699219 Z M 476.25 641.175781 " fill-opacity="1" fill-rule="nonzero"/><path fill="#ff914d" d="M 476.25 326.925781 L 476.25 641.175781 L 467.023438 644.699219 L 467.023438 450.148438 L 473.324219 447.824219 L 470.101562 439.125 L 467.023438 440.25 L 467.023438 333.226562 L 419.175781 314.851562 C 423.898438 313.648438 428.398438 312 432.523438 310.125 Z M 476.25 326.925781 " fill-opacity="1" fill-rule="nonzero"/><path fill="#ff914d" d="M 573.300781 224.101562 L 575.625 225 C 569.476562 229.351562 561.976562 233.773438 553.125 238.351562 L 473.925781 272.550781 L 550.351562 297.375 L 550.351562 402.226562 L 544.949219 404.101562 L 548.023438 412.800781 L 550.351562 411.976562 L 550.351562 612.824219 L 541.125 616.351562 L 541.125 304.125 L 461.925781 278.398438 C 462.226562 276.75 462.375 274.875 462.375 273.148438 C 462.375 271.273438 462.226562 269.476562 461.851562 267.675781 L 549.148438 230.101562 C 560.175781 224.476562 568.800781 219.148438 575.25 213.976562 L 576.75 215.625 Z M 470.023438 439.125 L 473.25 447.898438 L 466.949219 450.148438 L 466.949219 440.25 Z M 470.023438 439.125 " fill-opacity="1" fill-rule="nonzero"/><path fill="#004aad" d="M 466.949219 450.148438 L 466.949219 644.625 L 384.449219 676.199219 L 292.199219 640.648438 L 292.199219 441.375 L 372.75 474.523438 C 377.324219 476.476562 381.976562 477.375 386.851562 477.375 C 390.898438 477.375 395.101562 476.625 399.074219 475.273438 Z M 466.949219 450.148438 " fill-opacity="1" fill-rule="nonzero"/><path fill="#5271ff" d="M 466.949219 333.226562 L 466.949219 440.25 L 395.925781 466.574219 C 389.550781 468.898438 382.648438 468.675781 376.351562 466.050781 L 292.199219 431.476562 L 292.199219 330.675781 L 341.25 308.476562 C 354 314.925781 370.425781 318.824219 388.648438 318.824219 C 399.601562 318.824219 409.800781 317.398438 419.023438 314.851562 Z M 466.949219 333.226562 " fill-opacity="1" fill-rule="nonzero"/><path fill="#ff914d" d="M 466.050781 174.898438 L 462.523438 183.449219 L 456.523438 180.976562 L 463.050781 173.699219 Z M 466.050781 174.898438 " fill-opacity="1" fill-rule="nonzero"/><path fill="#ff914d" d="M 586.050781 154.351562 C 597.75 170.25 601.800781 183.824219 598.800781 196.050781 C 596.851562 204 592.125 211.351562 583.875 218.550781 L 576.675781 215.550781 L 575.175781 213.898438 C 583.5 207.148438 588.226562 200.625 589.800781 193.800781 C 592.050781 184.425781 588.523438 173.398438 578.851562 160.125 L 566.625 146.398438 C 558.675781 137.398438 545.324219 132.148438 531.976562 132.898438 C 516.148438 133.648438 501.675781 142.050781 491.101562 156.523438 L 421.949219 232.273438 C 418.726562 231.226562 415.351562 230.398438 411.824219 229.800781 L 456.375 180.976562 L 462.375 183.449219 L 465.898438 174.898438 L 462.898438 173.699219 L 483.898438 150.675781 C 495.75 134.25 512.773438 124.5 531.375 123.601562 C 547.648438 122.773438 563.398438 129 573.300781 140.175781 Z M 461.773438 267.675781 C 462.148438 269.398438 462.300781 271.273438 462.300781 273.148438 C 462.300781 274.875 462.148438 276.75 461.851562 278.398438 L 456.300781 276.523438 L 456.226562 269.925781 L 459.300781 268.726562 Z M 461.773438 267.675781 " fill-opacity="1" fill-rule="nonzero"/><path fill="#5271ff" d="M 456.523438 180.976562 L 411.976562 229.800781 C 404.773438 228.226562 396.898438 227.476562 388.726562 227.476562 C 381.75 227.476562 375.074219 228 368.699219 229.125 L 327.148438 175.351562 L 379.648438 156.824219 C 386.023438 154.351562 393 154.425781 399.300781 157.125 Z M 456.523438 180.976562 " fill-opacity="1" fill-rule="nonzero"/><path fill="#ff914d" d="M 420.824219 305.699219 L 432.375 310.125 C 428.324219 312 423.75 313.648438 419.023438 314.851562 L 417.449219 314.324219 Z M 422.023438 232.273438 L 416.925781 237.898438 L 410.175781 231.675781 L 411.898438 229.726562 C 415.5 230.398438 418.800781 231.226562 422.023438 232.273438 Z M 388.726562 236.699219 C 423.675781 236.699219 453.074219 253.351562 453.074219 273.074219 C 453.074219 286.425781 439.800781 298.273438 420.449219 304.648438 C 411.074219 307.800781 400.199219 309.523438 388.648438 309.523438 C 353.625 309.523438 324.226562 292.875 324.226562 273 C 324.226562 269.550781 325.125 266.25 326.851562 263.023438 C 334.726562 248.101562 359.773438 236.699219 388.726562 236.699219 Z M 379.648438 156.75 L 327.148438 175.273438 L 321.226562 167.625 L 376.425781 148.199219 C 384.824219 144.898438 394.273438 144.976562 402.898438 148.5 L 463.125 173.773438 L 456.523438 180.976562 L 399.300781 157.050781 C 393 154.351562 386.023438 154.273438 379.648438 156.75 Z M 376.425781 466.050781 C 382.726562 468.75 389.550781 468.898438 396 466.574219 L 467.023438 440.25 L 467.023438 450.148438 L 399.148438 475.273438 C 395.175781 476.699219 390.976562 477.375 386.925781 477.375 C 382.125 477.375 377.398438 476.476562 372.824219 474.523438 L 292.273438 441.375 L 292.273438 431.476562 Z M 368.699219 229.125 L 368.773438 229.199219 L 361.425781 234.824219 L 358.648438 231.226562 C 361.949219 230.398438 365.25 229.648438 368.699219 229.125 Z M 368.699219 229.125 " fill-opacity="1" fill-rule="nonzero"/><path fill="#ff914d" d="M 288.226562 140.101562 L 358.726562 231.226562 C 341.699219 235.875 328.125 244.273438 320.851562 254.925781 L 319.648438 255.449219 L 230.851562 212.398438 C 229.625 211.8125 228.441406 211.152344 227.300781 210.417969 C 226.15625 209.679688 225.0625 208.878906 224.019531 208.007812 C 222.976562 207.140625 221.992188 206.207031 221.0625 205.21875 C 220.136719 204.226562 219.273438 203.179688 218.472656 202.082031 C 217.675781 200.984375 216.945312 199.839844 216.289062 198.648438 C 215.632812 197.460938 215.050781 196.238281 214.542969 194.976562 C 214.039062 193.714844 213.613281 192.429688 213.265625 191.113281 C 212.921875 189.800781 212.65625 188.472656 212.476562 187.125 C 210.898438 176.175781 215.101562 165.300781 223.425781 157.875 L 248.25 136.199219 C 254.023438 131.101562 261.375 128.699219 269.101562 129.449219 C 276.75 130.199219 283.5 134.023438 288.226562 140.101562 Z M 331.875 302.550781 L 338.25 299.699219 L 342.074219 308.101562 L 341.324219 308.476562 C 337.875 306.601562 334.726562 304.648438 331.875 302.550781 Z M 331.875 302.550781 " fill-opacity="1" fill-rule="nonzero"/><path fill="#ff914d" d="M 361.5 234.824219 L 368.851562 229.199219 L 368.773438 229.125 C 375.148438 228 381.824219 227.476562 388.800781 227.476562 C 396.976562 227.476562 404.851562 228.226562 412.050781 229.800781 L 410.324219 231.75 L 417.074219 237.976562 L 422.175781 232.351562 C 443.773438 239.023438 459 252.074219 461.925781 267.75 L 459.449219 268.875 L 456.375 270.074219 L 456.449219 276.675781 L 462 278.550781 C 459.675781 291.675781 448.648438 303 432.523438 310.351562 L 420.976562 305.925781 L 420.601562 304.875 C 439.949219 298.5 453.226562 286.648438 453.226562 273.300781 C 453.226562 253.574219 423.75 236.925781 388.875 236.925781 C 360 236.925781 334.875 248.324219 327 263.324219 L 326.175781 262.949219 L 322.5 254.550781 L 321 255.226562 C 328.351562 244.574219 341.851562 236.175781 358.875 231.523438 Z M 331.875 302.550781 L 282.976562 324.75 L 282.976562 637.050781 L 222.375 613.726562 L 222.375 309.148438 L 315.523438 267.449219 C 315.148438 269.324219 315 271.125 315 273.074219 C 315 284.398438 321.300781 294.675781 331.875 302.550781 Z M 321.226562 167.625 L 327.148438 175.273438 L 321.074219 177.449219 L 318.074219 168.75 Z M 321.226562 167.625 " fill-opacity="1" fill-rule="nonzero"/><path fill="#ff914d" d="M 338.25 299.699219 L 331.875 302.550781 C 321.300781 294.675781 315 284.398438 315 273.074219 C 315 271.125 315.148438 269.25 315.523438 267.449219 L 326.023438 262.726562 L 326.851562 263.101562 C 325.199219 266.324219 324.226562 269.699219 324.226562 273.074219 C 324.226562 292.875 353.699219 309.601562 388.648438 309.601562 C 400.125 309.601562 411.074219 307.875 420.449219 304.726562 L 420.824219 305.773438 L 417.523438 314.398438 L 419.101562 314.925781 C 409.875 317.550781 399.675781 318.898438 388.726562 318.898438 C 370.5 318.898438 354.074219 315 341.324219 308.550781 L 342.074219 308.175781 Z M 321.523438 256.425781 L 317.550781 264.75 L 316.351562 264.226562 C 317.175781 261.226562 318.601562 258.449219 320.25 255.824219 Z M 321.523438 256.425781 " fill-opacity="1" fill-rule="nonzero"/><path fill="#8c52ff" d="M 319.648438 255.523438 L 320.851562 255 C 320.699219 255.300781 320.476562 255.523438 320.324219 255.824219 Z M 319.648438 255.523438 " fill-opacity="1" fill-rule="nonzero"/><path fill="#ff914d" d="M 319.648438 255.523438 L 320.324219 255.824219 C 318.675781 258.523438 317.25 261.300781 316.425781 264.226562 L 308.625 260.398438 Z M 319.648438 255.523438 " fill-opacity="1" fill-rule="nonzero"/><path fill="#ff914d" d="M 322.273438 254.324219 L 325.949219 262.726562 L 315.449219 267.449219 C 315.601562 266.324219 315.898438 265.199219 316.273438 264.226562 L 317.476562 264.75 L 321.449219 256.425781 L 320.25 255.75 C 320.398438 255.449219 320.625 255.226562 320.773438 254.925781 Z M 292.199219 640.726562 L 292.199219 643.875 L 282.976562 643.875 L 282.976562 637.050781 Z M 292.199219 640.726562 " fill-opacity="1" fill-rule="nonzero"/><path fill="#ff914d" d="M 292.199219 441.375 L 292.199219 640.726562 L 282.976562 637.050781 L 282.976562 438.523438 L 285.148438 438.523438 Z M 292.199219 431.476562 L 292.199219 441.375 L 285.148438 438.523438 L 288.675781 429.976562 Z M 292.199219 431.476562 " fill-opacity="1" fill-rule="nonzero"/><path fill="#ff914d" d="M 282.976562 438.523438 L 282.976562 324.75 L 331.875 302.550781 C 334.726562 304.648438 337.875 306.601562 341.324219 308.476562 L 292.273438 330.675781 L 292.273438 431.476562 L 288.75 429.976562 L 285.226562 438.523438 Z M 222.375 613.726562 L 222.375 618.898438 L 213.074219 618.898438 L 213.074219 610.125 Z M 222.375 613.726562 " fill-opacity="1" fill-rule="nonzero"/><path fill="#ff914d" d="M 222.375 309.148438 L 222.375 613.726562 L 213.148438 610.125 L 213.148438 410.625 L 216.375 411.675781 L 219.148438 402.898438 L 213.148438 401.023438 L 213.148438 303.074219 L 308.625 260.398438 L 316.425781 264.226562 C 316.050781 265.273438 315.75 266.324219 315.601562 267.449219 Z M 665.324219 372.449219 L 665.324219 578.625 L 384.449219 686.175781 L 212.773438 619.949219 L 213.074219 618.898438 L 222.375 618.898438 L 222.375 613.726562 L 282.976562 637.050781 L 282.976562 643.875 L 292.199219 643.875 L 292.199219 640.726562 L 384.449219 676.273438 L 466.949219 644.699219 L 466.949219 647.851562 L 476.25 647.851562 L 476.25 641.175781 L 541.050781 616.351562 L 541.050781 617.476562 L 550.351562 617.476562 L 550.351562 612.824219 L 656.101562 572.324219 L 656.101562 375.601562 Z M 665.324219 372.449219 " fill-opacity="1" fill-rule="nonzero"/><path fill="#5271ff" d="M 219.375 217.050781 L 218.925781 215.851562 C 221.324219 217.875 223.949219 219.449219 226.726562 220.875 L 308.625 260.398438 L 213.148438 303.074219 L 213.148438 400.949219 L 123 372.675781 L 123 372.523438 L 122.476562 372.523438 L 101.25 365.851562 C 95.699219 364.199219 91.875 359.101562 91.875 353.25 L 91.875 277.273438 C 91.875 270.898438 95.699219 265.199219 101.476562 262.800781 Z M 219.375 217.050781 " fill-opacity="1" fill-rule="nonzero"/><path fill="#ff914d" d="M 219.148438 402.824219 L 216.375 411.675781 L 213.074219 410.625 L 213.074219 401.023438 Z M 216.074219 208.425781 L 218.925781 215.851562 C 216.601562 214.125 214.5 212.023438 212.625 209.699219 Z M 216.074219 208.425781 " fill-opacity="1" fill-rule="nonzero"/><path fill="#004aad" d="M 213.074219 410.625 L 213.074219 610.125 L 136.949219 580.800781 C 128.625 577.574219 123 569.398438 123 560.398438 L 123 382.425781 Z M 213.074219 410.625 " fill-opacity="1" fill-rule="nonzero"/><path fill="#ff914d" d="M 213.074219 401.023438 L 213.074219 410.625 L 123 382.425781 L 123 372.675781 Z M 203.175781 188.476562 C 201.300781 174.375 206.476562 160.351562 217.273438 150.976562 L 242.101562 129.300781 C 249.75 122.476562 259.726562 119.324219 270 120.300781 C 280.199219 121.199219 289.273438 126.300781 295.574219 134.476562 L 321.226562 167.625 L 318.074219 168.75 L 321.148438 177.449219 L 327.148438 175.351562 L 368.699219 229.125 C 365.25 229.648438 361.949219 230.398438 358.726562 231.226562 L 288.226562 140.101562 C 283.5 133.949219 276.75 130.199219 269.023438 129.449219 C 261.375 128.699219 253.949219 131.101562 248.175781 136.199219 L 223.351562 157.875 C 215.023438 165.300781 210.824219 176.25 212.398438 187.125 C 213.898438 198.148438 220.726562 207.601562 230.773438 212.398438 L 319.574219 255.449219 L 308.550781 260.324219 L 226.648438 220.800781 C 223.875 219.375 221.25 217.800781 218.851562 215.773438 L 216 208.351562 L 212.550781 209.625 C 207.675781 203.851562 204.300781 196.425781 203.175781 188.476562 Z M 123 372.675781 L 123 382.425781 L 113.699219 379.5 L 113.699219 372.449219 L 122.476562 372.449219 Z M 123 372.675781 " fill-opacity="1" fill-rule="nonzero"/><path fill="#8c52ff" d="M 123 372.449219 L 123 372.675781 L 122.476562 372.449219 Z M 123 372.449219 " fill-opacity="1" fill-rule="nonzero"/><path fill="#ff914d" d="M 113.699219 560.398438 L 113.699219 379.5 L 122.925781 382.351562 L 122.925781 560.324219 C 122.925781 569.324219 128.550781 577.425781 136.875 580.726562 L 213 610.050781 L 213 618.824219 L 212.625 619.875 L 133.5 589.273438 C 121.800781 584.851562 113.699219 573.148438 113.699219 560.398438 Z M 113.699219 560.398438 " fill-opacity="1" fill-rule="nonzero"/><path fill="#ff914d" d="M 82.648438 277.273438 C 82.648438 267.148438 88.800781 258.074219 98.101562 254.25 L 212.699219 209.773438 C 214.574219 212.101562 216.675781 214.125 219 215.925781 L 219.449219 217.125 L 101.550781 262.875 C 95.699219 265.273438 91.949219 270.898438 91.949219 277.351562 L 91.949219 353.25 C 91.949219 359.101562 95.773438 364.199219 101.324219 365.851562 L 122.550781 372.523438 L 113.851562 372.523438 L 113.851562 379.574219 L 98.550781 374.773438 C 89.101562 371.773438 82.726562 363.226562 82.726562 353.324219 L 82.726562 277.273438 Z M 82.648438 277.273438 " fill-opacity="1" fill-rule="nonzero"/></svg>